<?xml version="1.0" encoding="UTF-8" standalone="no"?>
<svg
   version="1.1"
   viewBox="0 0 358.47241 344.46878"
   fill="none"
   stroke="none"
   stroke-linecap="square"
   stroke-miterlimit="10"
   id="svg176"
   width="358.47241"
   height="344.46878"
   xmlns="http://www.w3.org/2000/svg"
   xmlns:svg="http://www.w3.org/2000/svg">
  <defs
     id="defs176" />
  <clipPath
     id="g36d965c20c1_0_0.0">
    <path
       d="M 0,0 H 960 V 540 H 0 Z"
       clip-rule="nonzero"
       id="path1" />
  </clipPath>
  <g
     clip-path="url(#g36d965c20c1_0_0.0)"
     id="g176"
     transform="translate(-275.30185,-93.5207)">
    <path
       fill="#4fba6f"
       d="M 276.30185,164.70604 H 548.58533 V 436.98949 H 276.30185 Z"
       fill-rule="evenodd"
       id="path3" />
    <path
       stroke="#595959"
       stroke-width="2"
       stroke-linejoin="round"
       stroke-linecap="butt"
       d="M 276.30185,164.70604 H 548.58533 V 436.98949 H 276.30185 Z"
       fill-rule="evenodd"
       id="path4" />
    <path
       fill="#efc41b"
       d="m 556.3018,164.70604 h 76.47247 V 436.98949 H 556.3018 Z"
       fill-rule="evenodd"
       id="path5" />
    <path
       stroke="#595959"
       stroke-width="2"
       stroke-linejoin="round"
       stroke-linecap="butt"
       d="m 556.3018,164.70604 h 76.47247 V 436.98949 H 556.3018 Z"
       fill-rule="evenodd"
       id="path6" />
    <path
       fill="#2c96c0"
       d="m 276.30185,94.5207 h 272.28348 v 62.3937 H 276.30185 Z"
       fill-rule="evenodd"
       id="path7" />
    <path
       stroke="#595959"
       stroke-width="2"
       stroke-linejoin="round"
       stroke-linecap="butt"
       d="m 276.30185,94.5207 h 272.28348 v 62.3937 H 276.30185 Z"
       fill-rule="evenodd"
       id="path8" />
    <path
       fill="#000000"
       fill-opacity="0"
       d="M 287.39474,230.85826 H 538.48138"
       fill-rule="evenodd"
       id="path9" />
    <path
       stroke="#595959"
       stroke-width="2"
       stroke-linejoin="round"
       stroke-linecap="butt"
       d="M 287.39474,230.85826 H 538.48138"
       fill-rule="evenodd"
       id="path10" />
    <path
       fill="#000000"
       fill-opacity="0"
       d="M 300.505,230.3517 V 216.74541"
       fill-rule="evenodd"
       id="path11" />
    <path
       stroke="#595959"
       stroke-width="2"
       stroke-linejoin="round"
       stroke-linecap="butt"
       d="M 300.505,230.3517 V 216.74541"
       fill-rule="evenodd"
       id="path12" />
    <path
       fill="#000000"
       fill-opacity="0"
       d="M 308.43677,230.3517 V 208.68242"
       fill-rule="evenodd"
       id="path13" />
    <path
       stroke="#595959"
       stroke-width="2"
       stroke-linejoin="round"
       stroke-linecap="butt"
       d="M 308.43677,230.3517 V 208.68242"
       fill-rule="evenodd"
       id="path14" />
    <path
       fill="#000000"
       fill-opacity="0"
       d="M 304.77533,230.3517 V 190.50919"
       fill-rule="evenodd"
       id="path15" />
    <path
       stroke="#595959"
       stroke-width="2"
       stroke-linejoin="round"
       stroke-linecap="butt"
       d="M 304.77533,230.3517 V 190.50919"
       fill-rule="evenodd"
       id="path16" />
    <path
       fill="#000000"
       fill-opacity="0"
       d="M 348.00107,230.3517 V 190.50919"
       fill-rule="evenodd"
       id="path17" />
    <path
       stroke="#595959"
       stroke-width="2"
       stroke-linejoin="round"
       stroke-linecap="butt"
       d="M 348.00107,230.3517 V 190.50919"
       fill-rule="evenodd"
       id="path18" />
    <path
       fill="#000000"
       fill-opacity="0"
       d="M 359.463,230.3517 V 208.68242"
       fill-rule="evenodd"
       id="path19" />
    <path
       stroke="#595959"
       stroke-width="2"
       stroke-linejoin="round"
       stroke-linecap="butt"
       d="M 359.463,230.3517 V 208.68242"
       fill-rule="evenodd"
       id="path20" />
    <path
       fill="#000000"
       fill-opacity="0"
       d="m 354.28714,230.3517 0.1575,-51.43306"
       fill-rule="evenodd"
       id="path21" />
    <path
       stroke="#595959"
       stroke-width="2"
       stroke-linejoin="round"
       stroke-linecap="butt"
       d="m 354.28714,230.3517 0.1575,-51.43306"
       fill-rule="evenodd"
       id="path22" />
    <path
       fill="#000000"
       fill-opacity="0"
       d="M 458.52075,230.3517 V 190.50919"
       fill-rule="evenodd"
       id="path23" />
    <path
       stroke="#595959"
       stroke-width="2"
       stroke-linejoin="round"
       stroke-linecap="butt"
       d="M 458.52075,230.3517 V 190.50919"
       fill-rule="evenodd"
       id="path24" />
    <path
       fill="#000000"
       fill-opacity="0"
       d="M 463.99973,230.3517 V 209.69029"
       fill-rule="evenodd"
       id="path25" />
    <path
       stroke="#595959"
       stroke-width="2"
       stroke-linejoin="round"
       stroke-linecap="butt"
       d="M 463.99973,230.3517 V 209.69029"
       fill-rule="evenodd"
       id="path26" />
    <path
       fill="#000000"
       fill-opacity="0"
       d="M 410.52075,230.3517 V 184.96588"
       fill-rule="evenodd"
       id="path27" />
    <path
       stroke="#595959"
       stroke-width="2"
       stroke-linejoin="round"
       stroke-linecap="butt"
       d="M 410.52075,230.3517 V 184.96588"
       fill-rule="evenodd"
       id="path28" />
    <path
       fill="#000000"
       fill-opacity="0"
       d="M 418.52075,230.3517 V 184.96588"
       fill-rule="evenodd"
       id="path29" />
    <path
       stroke="#595959"
       stroke-width="2"
       stroke-linejoin="round"
       stroke-linecap="butt"
       d="M 418.52075,230.3517 V 184.96588"
       fill-rule="evenodd"
       id="path30" />
    <path
       fill="#000000"
       fill-opacity="0"
       d="M 505.9827,230.3517 V 217.75328"
       fill-rule="evenodd"
       id="path31" />
    <path
       stroke="#595959"
       stroke-width="2"
       stroke-linejoin="round"
       stroke-linecap="butt"
       d="M 505.9827,230.3517 V 217.75328"
       fill-rule="evenodd"
       id="path32" />
    <path
       fill="#000000"
       fill-opacity="0"
       d="M 287.39474,254.85826 H 538.48138"
       fill-rule="evenodd"
       id="path33" />
    <path
       stroke="#595959"
       stroke-width="2"
       stroke-linejoin="round"
       stroke-linecap="butt"
       d="M 287.39474,254.85826 H 538.48138"
       fill-rule="evenodd"
       id="path34" />
    <path
       fill="#000000"
       fill-opacity="0"
       d="M 316.505,254.3517 V 240.74541"
       fill-rule="evenodd"
       id="path35" />
    <path
       stroke="#595959"
       stroke-width="2"
       stroke-linejoin="round"
       stroke-linecap="butt"
       d="M 316.505,254.3517 V 240.74541"
       fill-rule="evenodd"
       id="path36" />
    <path
       fill="#000000"
       fill-opacity="0"
       d="M 324.43677,254.3517 V 232.68242"
       fill-rule="evenodd"
       id="path37" />
    <path
       stroke="#595959"
       stroke-width="2"
       stroke-linejoin="round"
       stroke-linecap="butt"
       d="M 324.43677,254.3517 V 232.68242"
       fill-rule="evenodd"
       id="path38" />
    <path
       fill="#000000"
       fill-opacity="0"
       d="M 320.77533,254.3517 V 214.50919"
       fill-rule="evenodd"
       id="path39" />
    <path
       stroke="#595959"
       stroke-width="2"
       stroke-linejoin="round"
       stroke-linecap="butt"
       d="M 320.77533,254.3517 V 214.50919"
       fill-rule="evenodd"
       id="path40" />
    <path
       fill="#000000"
       fill-opacity="0"
       d="M 364.00107,254.3517 V 214.50919"
       fill-rule="evenodd"
       id="path41" />
    <path
       stroke="#595959"
       stroke-width="2"
       stroke-linejoin="round"
       stroke-linecap="butt"
       d="M 364.00107,254.3517 V 214.50919"
       fill-rule="evenodd"
       id="path42" />
    <path
       fill="#000000"
       fill-opacity="0"
       d="M 375.463,254.3517 V 232.68242"
       fill-rule="evenodd"
       id="path43" />
    <path
       stroke="#595959"
       stroke-width="2"
       stroke-linejoin="round"
       stroke-linecap="butt"
       d="M 375.463,254.3517 V 232.68242"
       fill-rule="evenodd"
       id="path44" />
    <path
       fill="#000000"
       fill-opacity="0"
       d="m 370.28714,254.3517 0.1575,-51.43306"
       fill-rule="evenodd"
       id="path45" />
    <path
       stroke="#595959"
       stroke-width="2"
       stroke-linejoin="round"
       stroke-linecap="butt"
       d="m 370.28714,254.3517 0.1575,-51.43306"
       fill-rule="evenodd"
       id="path46" />
    <path
       fill="#000000"
       fill-opacity="0"
       d="M 474.52075,254.3517 V 214.50919"
       fill-rule="evenodd"
       id="path47" />
    <path
       stroke="#595959"
       stroke-width="2"
       stroke-linejoin="round"
       stroke-linecap="butt"
       d="M 474.52075,254.3517 V 214.50919"
       fill-rule="evenodd"
       id="path48" />
    <path
       fill="#000000"
       fill-opacity="0"
       d="M 479.99973,254.3517 V 233.69029"
       fill-rule="evenodd"
       id="path49" />
    <path
       stroke="#595959"
       stroke-width="2"
       stroke-linejoin="round"
       stroke-linecap="butt"
       d="M 479.99973,254.3517 V 233.69029"
       fill-rule="evenodd"
       id="path50" />
    <path
       fill="#000000"
       fill-opacity="0"
       d="M 426.52075,254.3517 V 208.96588"
       fill-rule="evenodd"
       id="path51" />
    <path
       stroke="#595959"
       stroke-width="2"
       stroke-linejoin="round"
       stroke-linecap="butt"
       d="M 426.52075,254.3517 V 208.96588"
       fill-rule="evenodd"
       id="path52" />
    <path
       fill="#000000"
       fill-opacity="0"
       d="M 434.52075,254.3517 V 208.96588"
       fill-rule="evenodd"
       id="path53" />
    <path
       stroke="#595959"
       stroke-width="2"
       stroke-linejoin="round"
       stroke-linecap="butt"
       d="M 434.52075,254.3517 V 208.96588"
       fill-rule="evenodd"
       id="path54" />
    <path
       fill="#000000"
       fill-opacity="0"
       d="M 521.98267,254.3517 V 241.75328"
       fill-rule="evenodd"
       id="path55" />
    <path
       stroke="#595959"
       stroke-width="2"
       stroke-linejoin="round"
       stroke-linecap="butt"
       d="M 521.98267,254.3517 V 241.75328"
       fill-rule="evenodd"
       id="path56" />
    <path
       fill="#000000"
       fill-opacity="0"
       d="M 287.39474,278.85828 H 538.48138"
       fill-rule="evenodd"
       id="path57" />
    <path
       stroke="#595959"
       stroke-width="2"
       stroke-linejoin="round"
       stroke-linecap="butt"
       d="M 287.39474,278.85828 H 538.48138"
       fill-rule="evenodd"
       id="path58" />
    <path
       fill="#000000"
       fill-opacity="0"
       d="M 300.505,278.3517 V 264.74538"
       fill-rule="evenodd"
       id="path59" />
    <path
       stroke="#595959"
       stroke-width="2"
       stroke-linejoin="round"
       stroke-linecap="butt"
       d="M 300.505,278.3517 V 264.74538"
       fill-rule="evenodd"
       id="path60" />
    <path
       fill="#000000"
       fill-opacity="0"
       d="M 308.43677,278.3517 V 256.68239"
       fill-rule="evenodd"
       id="path61" />
    <path
       stroke="#595959"
       stroke-width="2"
       stroke-linejoin="round"
       stroke-linecap="butt"
       d="M 308.43677,278.3517 V 256.68239"
       fill-rule="evenodd"
       id="path62" />
    <path
       fill="#000000"
       fill-opacity="0"
       d="M 304.77533,278.3517 V 238.50917"
       fill-rule="evenodd"
       id="path63" />
    <path
       stroke="#595959"
       stroke-width="2"
       stroke-linejoin="round"
       stroke-linecap="butt"
       d="M 304.77533,278.3517 V 238.50917"
       fill-rule="evenodd"
       id="path64" />
    <path
       fill="#000000"
       fill-opacity="0"
       d="M 348.00107,278.3517 V 238.50917"
       fill-rule="evenodd"
       id="path65" />
    <path
       stroke="#595959"
       stroke-width="2"
       stroke-linejoin="round"
       stroke-linecap="butt"
       d="M 348.00107,278.3517 V 238.50917"
       fill-rule="evenodd"
       id="path66" />
    <path
       fill="#000000"
       fill-opacity="0"
       d="M 359.463,278.3517 V 256.68239"
       fill-rule="evenodd"
       id="path67" />
    <path
       stroke="#595959"
       stroke-width="2"
       stroke-linejoin="round"
       stroke-linecap="butt"
       d="M 359.463,278.3517 V 256.68239"
       fill-rule="evenodd"
       id="path68" />
    <path
       fill="#000000"
       fill-opacity="0"
       d="m 354.28714,278.3517 0.1575,-51.43308"
       fill-rule="evenodd"
       id="path69" />
    <path
       stroke="#595959"
       stroke-width="2"
       stroke-linejoin="round"
       stroke-linecap="butt"
       d="m 354.28714,278.3517 0.1575,-51.43308"
       fill-rule="evenodd"
       id="path70" />
    <path
       fill="#000000"
       fill-opacity="0"
       d="M 458.52075,278.3517 V 238.50917"
       fill-rule="evenodd"
       id="path71" />
    <path
       stroke="#595959"
       stroke-width="2"
       stroke-linejoin="round"
       stroke-linecap="butt"
       d="M 458.52075,278.3517 V 238.50917"
       fill-rule="evenodd"
       id="path72" />
    <path
       fill="#000000"
       fill-opacity="0"
       d="M 463.99973,278.3517 V 257.69026"
       fill-rule="evenodd"
       id="path73" />
    <path
       stroke="#595959"
       stroke-width="2"
       stroke-linejoin="round"
       stroke-linecap="butt"
       d="M 463.99973,278.3517 V 257.69026"
       fill-rule="evenodd"
       id="path74" />
    <path
       fill="#000000"
       fill-opacity="0"
       d="M 410.52075,278.3517 V 232.96587"
       fill-rule="evenodd"
       id="path75" />
    <path
       stroke="#595959"
       stroke-width="2"
       stroke-linejoin="round"
       stroke-linecap="butt"
       d="M 410.52075,278.3517 V 232.96587"
       fill-rule="evenodd"
       id="path76" />
    <path
       fill="#000000"
       fill-opacity="0"
       d="M 418.52075,278.3517 V 232.96587"
       fill-rule="evenodd"
       id="path77" />
    <path
       stroke="#595959"
       stroke-width="2"
       stroke-linejoin="round"
       stroke-linecap="butt"
       d="M 418.52075,278.3517 V 232.96587"
       fill-rule="evenodd"
       id="path78" />
    <path
       fill="#000000"
       fill-opacity="0"
       d="M 505.9827,278.3517 V 265.75328"
       fill-rule="evenodd"
       id="path79" />
    <path
       stroke="#595959"
       stroke-width="2"
       stroke-linejoin="round"
       stroke-linecap="butt"
       d="M 505.9827,278.3517 V 265.75328"
       fill-rule="evenodd"
       id="path80" />
    <path
       fill="#000000"
       fill-opacity="0"
       d="M 287.39474,326.85828 H 538.48138"
       fill-rule="evenodd"
       id="path81" />
    <path
       stroke="#595959"
       stroke-width="2"
       stroke-linejoin="round"
       stroke-linecap="butt"
       d="M 287.39474,326.85828 H 538.48138"
       fill-rule="evenodd"
       id="path82" />
    <path
       fill="#000000"
       fill-opacity="0"
       d="M 300.505,326.3517 V 312.74538"
       fill-rule="evenodd"
       id="path83" />
    <path
       stroke="#595959"
       stroke-width="2"
       stroke-linejoin="round"
       stroke-linecap="butt"
       d="M 300.505,326.3517 V 312.74538"
       fill-rule="evenodd"
       id="path84" />
    <path
       fill="#000000"
       fill-opacity="0"
       d="M 308.43677,326.3517 V 304.68239"
       fill-rule="evenodd"
       id="path85" />
    <path
       stroke="#595959"
       stroke-width="2"
       stroke-linejoin="round"
       stroke-linecap="butt"
       d="M 308.43677,326.3517 V 304.68239"
       fill-rule="evenodd"
       id="path86" />
    <path
       fill="#000000"
       fill-opacity="0"
       d="M 304.77533,326.3517 V 286.50917"
       fill-rule="evenodd"
       id="path87" />
    <path
       stroke="#595959"
       stroke-width="2"
       stroke-linejoin="round"
       stroke-linecap="butt"
       d="M 304.77533,326.3517 V 286.50917"
       fill-rule="evenodd"
       id="path88" />
    <path
       fill="#000000"
       fill-opacity="0"
       d="M 348.00107,326.3517 V 286.50917"
       fill-rule="evenodd"
       id="path89" />
    <path
       stroke="#595959"
       stroke-width="2"
       stroke-linejoin="round"
       stroke-linecap="butt"
       d="M 348.00107,326.3517 V 286.50917"
       fill-rule="evenodd"
       id="path90" />
    <path
       fill="#000000"
       fill-opacity="0"
       d="M 359.463,326.3517 V 304.68239"
       fill-rule="evenodd"
       id="path91" />
    <path
       stroke="#595959"
       stroke-width="2"
       stroke-linejoin="round"
       stroke-linecap="butt"
       d="M 359.463,326.3517 V 304.68239"
       fill-rule="evenodd"
       id="path92" />
    <path
       fill="#000000"
       fill-opacity="0"
       d="M 354.28714,326.3517 V 293.94225"
       fill-rule="evenodd"
       id="path93" />
    <path
       stroke="#595959"
       stroke-width="2"
       stroke-linejoin="round"
       stroke-linecap="butt"
       d="M 354.28714,326.3517 V 293.94225"
       fill-rule="evenodd"
       id="path94" />
    <path
       fill="#000000"
       fill-opacity="0"
       d="M 458.52075,326.3517 V 286.50917"
       fill-rule="evenodd"
       id="path95" />
    <path
       stroke="#595959"
       stroke-width="2"
       stroke-linejoin="round"
       stroke-linecap="butt"
       d="M 458.52075,326.3517 V 286.50917"
       fill-rule="evenodd"
       id="path96" />
    <path
       fill="#000000"
       fill-opacity="0"
       d="M 463.99973,326.3517 V 305.69026"
       fill-rule="evenodd"
       id="path97" />
    <path
       stroke="#595959"
       stroke-width="2"
       stroke-linejoin="round"
       stroke-linecap="butt"
       d="M 463.99973,326.3517 V 305.69026"
       fill-rule="evenodd"
       id="path98" />
    <path
       fill="#000000"
       fill-opacity="0"
       d="M 505.9827,326.3517 V 313.75328"
       fill-rule="evenodd"
       id="path99" />
    <path
       stroke="#595959"
       stroke-width="2"
       stroke-linejoin="round"
       stroke-linecap="butt"
       d="M 505.9827,326.3517 V 313.75328"
       fill-rule="evenodd"
       id="path100" />
    <path
       fill="#000000"
       fill-opacity="0"
       d="M 287.39474,350.85828 H 538.48138"
       fill-rule="evenodd"
       id="path101" />
    <path
       stroke="#595959"
       stroke-width="2"
       stroke-linejoin="round"
       stroke-linecap="butt"
       d="M 287.39474,350.85828 H 538.48138"
       fill-rule="evenodd"
       id="path102" />
    <path
       fill="#000000"
       fill-opacity="0"
       d="M 316.505,350.3517 V 336.74538"
       fill-rule="evenodd"
       id="path103" />
    <path
       stroke="#595959"
       stroke-width="2"
       stroke-linejoin="round"
       stroke-linecap="butt"
       d="M 316.505,350.3517 V 336.74538"
       fill-rule="evenodd"
       id="path104" />
    <path
       fill="#000000"
       fill-opacity="0"
       d="M 324.43677,350.3517 V 328.68239"
       fill-rule="evenodd"
       id="path105" />
    <path
       stroke="#595959"
       stroke-width="2"
       stroke-linejoin="round"
       stroke-linecap="butt"
       d="M 324.43677,350.3517 V 328.68239"
       fill-rule="evenodd"
       id="path106" />
    <path
       fill="#000000"
       fill-opacity="0"
       d="M 320.77533,350.3517 V 310.50917"
       fill-rule="evenodd"
       id="path107" />
    <path
       stroke="#595959"
       stroke-width="2"
       stroke-linejoin="round"
       stroke-linecap="butt"
       d="M 320.77533,350.3517 V 310.50917"
       fill-rule="evenodd"
       id="path108" />
    <path
       fill="#000000"
       fill-opacity="0"
       d="M 364.00107,350.3517 V 310.50917"
       fill-rule="evenodd"
       id="path109" />
    <path
       stroke="#595959"
       stroke-width="2"
       stroke-linejoin="round"
       stroke-linecap="butt"
       d="M 364.00107,350.3517 V 310.50917"
       fill-rule="evenodd"
       id="path110" />
    <path
       fill="#000000"
       fill-opacity="0"
       d="M 375.463,350.3517 V 328.68239"
       fill-rule="evenodd"
       id="path111" />
    <path
       stroke="#595959"
       stroke-width="2"
       stroke-linejoin="round"
       stroke-linecap="butt"
       d="M 375.463,350.3517 V 328.68239"
       fill-rule="evenodd"
       id="path112" />
    <path
       fill="#000000"
       fill-opacity="0"
       d="M 474.52075,350.3517 V 310.50917"
       fill-rule="evenodd"
       id="path113" />
    <path
       stroke="#595959"
       stroke-width="2"
       stroke-linejoin="round"
       stroke-linecap="butt"
       d="M 474.52075,350.3517 V 310.50917"
       fill-rule="evenodd"
       id="path114" />
    <path
       fill="#000000"
       fill-opacity="0"
       d="M 479.99973,350.3517 V 329.69026"
       fill-rule="evenodd"
       id="path115" />
    <path
       stroke="#595959"
       stroke-width="2"
       stroke-linejoin="round"
       stroke-linecap="butt"
       d="M 479.99973,350.3517 V 329.69026"
       fill-rule="evenodd"
       id="path116" />
    <path
       fill="#000000"
       fill-opacity="0"
       d="M 426.52075,350.3517 V 320.17845"
       fill-rule="evenodd"
       id="path117" />
    <path
       stroke="#595959"
       stroke-width="2"
       stroke-linejoin="round"
       stroke-linecap="butt"
       d="M 426.52075,350.3517 V 320.17845"
       fill-rule="evenodd"
       id="path118" />
    <path
       fill="#000000"
       fill-opacity="0"
       d="M 434.52075,350.3517 V 304.96587"
       fill-rule="evenodd"
       id="path119" />
    <path
       stroke="#595959"
       stroke-width="2"
       stroke-linejoin="round"
       stroke-linecap="butt"
       d="M 434.52075,350.3517 V 304.96587"
       fill-rule="evenodd"
       id="path120" />
    <path
       fill="#000000"
       fill-opacity="0"
       d="M 521.98267,350.3517 V 337.75328"
       fill-rule="evenodd"
       id="path121" />
    <path
       stroke="#595959"
       stroke-width="2"
       stroke-linejoin="round"
       stroke-linecap="butt"
       d="M 521.98267,350.3517 V 337.75328"
       fill-rule="evenodd"
       id="path122" />
    <path
       fill="#000000"
       fill-opacity="0"
       d="M 287.39474,374.85828 H 538.48138"
       fill-rule="evenodd"
       id="path123" />
    <path
       stroke="#595959"
       stroke-width="2"
       stroke-linejoin="round"
       stroke-linecap="butt"
       d="M 287.39474,374.85828 H 538.48138"
       fill-rule="evenodd"
       id="path124" />
    <path
       fill="#000000"
       fill-opacity="0"
       d="M 300.505,374.3517 V 360.74538"
       fill-rule="evenodd"
       id="path125" />
    <path
       stroke="#595959"
       stroke-width="2"
       stroke-linejoin="round"
       stroke-linecap="butt"
       d="M 300.505,374.3517 V 360.74538"
       fill-rule="evenodd"
       id="path126" />
    <path
       fill="#000000"
       fill-opacity="0"
       d="M 308.43677,374.3517 V 352.68239"
       fill-rule="evenodd"
       id="path127" />
    <path
       stroke="#595959"
       stroke-width="2"
       stroke-linejoin="round"
       stroke-linecap="butt"
       d="M 308.43677,374.3517 V 352.68239"
       fill-rule="evenodd"
       id="path128" />
    <path
       fill="#000000"
       fill-opacity="0"
       d="M 304.77533,374.3517 V 334.50917"
       fill-rule="evenodd"
       id="path129" />
    <path
       stroke="#595959"
       stroke-width="2"
       stroke-linejoin="round"
       stroke-linecap="butt"
       d="M 304.77533,374.3517 V 334.50917"
       fill-rule="evenodd"
       id="path130" />
    <path
       fill="#000000"
       fill-opacity="0"
       d="M 348.00107,374.3517 V 334.50917"
       fill-rule="evenodd"
       id="path131" />
    <path
       stroke="#595959"
       stroke-width="2"
       stroke-linejoin="round"
       stroke-linecap="butt"
       d="M 348.00107,374.3517 V 334.50917"
       fill-rule="evenodd"
       id="path132" />
    <path
       fill="#000000"
       fill-opacity="0"
       d="M 359.463,374.3517 V 352.68239"
       fill-rule="evenodd"
       id="path133" />
    <path
       stroke="#595959"
       stroke-width="2"
       stroke-linejoin="round"
       stroke-linecap="butt"
       d="M 359.463,374.3517 V 352.68239"
       fill-rule="evenodd"
       id="path134" />
    <path
       fill="#000000"
       fill-opacity="0"
       d="m 354.28714,374.3517 0.1575,-51.43307"
       fill-rule="evenodd"
       id="path135" />
    <path
       stroke="#595959"
       stroke-width="2"
       stroke-linejoin="round"
       stroke-linecap="butt"
       d="m 354.28714,374.3517 0.1575,-51.43307"
       fill-rule="evenodd"
       id="path136" />
    <path
       fill="#000000"
       fill-opacity="0"
       d="M 458.52075,374.3517 V 334.50917"
       fill-rule="evenodd"
       id="path137" />
    <path
       stroke="#595959"
       stroke-width="2"
       stroke-linejoin="round"
       stroke-linecap="butt"
       d="M 458.52075,374.3517 V 334.50917"
       fill-rule="evenodd"
       id="path138" />
    <path
       fill="#000000"
       fill-opacity="0"
       d="M 463.99973,374.3517 V 353.69026"
       fill-rule="evenodd"
       id="path139" />
    <path
       stroke="#595959"
       stroke-width="2"
       stroke-linejoin="round"
       stroke-linecap="butt"
       d="M 463.99973,374.3517 V 353.69026"
       fill-rule="evenodd"
       id="path140" />
    <path
       fill="#000000"
       fill-opacity="0"
       d="M 410.52075,374.3517 V 328.96587"
       fill-rule="evenodd"
       id="path141" />
    <path
       stroke="#595959"
       stroke-width="2"
       stroke-linejoin="round"
       stroke-linecap="butt"
       d="M 410.52075,374.3517 V 328.96587"
       fill-rule="evenodd"
       id="path142" />
    <path
       fill="#000000"
       fill-opacity="0"
       d="M 418.52075,374.3517 V 328.96587"
       fill-rule="evenodd"
       id="path143" />
    <path
       stroke="#595959"
       stroke-width="2"
       stroke-linejoin="round"
       stroke-linecap="butt"
       d="M 418.52075,374.3517 V 328.96587"
       fill-rule="evenodd"
       id="path144" />
    <path
       fill="#000000"
       fill-opacity="0"
       d="M 505.9827,374.3517 V 361.75328"
       fill-rule="evenodd"
       id="path145" />
    <path
       stroke="#595959"
       stroke-width="2"
       stroke-linejoin="round"
       stroke-linecap="butt"
       d="M 505.9827,374.3517 V 361.75328"
       fill-rule="evenodd"
       id="path146" />
    <path
       fill="#000000"
       fill-opacity="0"
       d="M 287.39474,398.85828 H 538.48138"
       fill-rule="evenodd"
       id="path147" />
    <path
       stroke="#595959"
       stroke-width="2"
       stroke-linejoin="round"
       stroke-linecap="butt"
       d="M 287.39474,398.85828 H 538.48138"
       fill-rule="evenodd"
       id="path148" />
    <path
       fill="#000000"
       fill-opacity="0"
       d="M 316.505,398.3517 V 384.74538"
       fill-rule="evenodd"
       id="path149" />
    <path
       stroke="#595959"
       stroke-width="2"
       stroke-linejoin="round"
       stroke-linecap="butt"
       d="M 316.505,398.3517 V 384.74538"
       fill-rule="evenodd"
       id="path150" />
    <path
       fill="#000000"
       fill-opacity="0"
       d="M 324.43677,398.3517 V 376.68239"
       fill-rule="evenodd"
       id="path151" />
    <path
       stroke="#595959"
       stroke-width="2"
       stroke-linejoin="round"
       stroke-linecap="butt"
       d="M 324.43677,398.3517 V 376.68239"
       fill-rule="evenodd"
       id="path152" />
    <path
       fill="#000000"
       fill-opacity="0"
       d="M 320.77533,398.3517 V 358.50917"
       fill-rule="evenodd"
       id="path153" />
    <path
       stroke="#595959"
       stroke-width="2"
       stroke-linejoin="round"
       stroke-linecap="butt"
       d="M 320.77533,398.3517 V 358.50917"
       fill-rule="evenodd"
       id="path154" />
    <path
       fill="#000000"
       fill-opacity="0"
       d="M 364.00107,398.3517 V 358.50917"
       fill-rule="evenodd"
       id="path155" />
    <path
       stroke="#595959"
       stroke-width="2"
       stroke-linejoin="round"
       stroke-linecap="butt"
       d="M 364.00107,398.3517 V 358.50917"
       fill-rule="evenodd"
       id="path156" />
    <path
       fill="#000000"
       fill-opacity="0"
       d="M 375.463,398.3517 V 376.68239"
       fill-rule="evenodd"
       id="path157" />
    <path
       stroke="#595959"
       stroke-width="2"
       stroke-linejoin="round"
       stroke-linecap="butt"
       d="M 375.463,398.3517 V 376.68239"
       fill-rule="evenodd"
       id="path158" />
    <path
       fill="#000000"
       fill-opacity="0"
       d="m 370.28714,398.3517 0.1575,-51.43307"
       fill-rule="evenodd"
       id="path159" />
    <path
       stroke="#595959"
       stroke-width="2"
       stroke-linejoin="round"
       stroke-linecap="butt"
       d="m 370.28714,398.3517 0.1575,-51.43307"
       fill-rule="evenodd"
       id="path160" />
    <path
       fill="#000000"
       fill-opacity="0"
       d="M 474.52075,398.3517 V 358.50917"
       fill-rule="evenodd"
       id="path161" />
    <path
       stroke="#595959"
       stroke-width="2"
       stroke-linejoin="round"
       stroke-linecap="butt"
       d="M 474.52075,398.3517 V 358.50917"
       fill-rule="evenodd"
       id="path162" />
    <path
       fill="#000000"
       fill-opacity="0"
       d="M 479.99973,398.3517 V 377.69026"
       fill-rule="evenodd"
       id="path163" />
    <path
       stroke="#595959"
       stroke-width="2"
       stroke-linejoin="round"
       stroke-linecap="butt"
       d="M 479.99973,398.3517 V 377.69026"
       fill-rule="evenodd"
       id="path164" />
    <path
       fill="#000000"
       fill-opacity="0"
       d="M 426.52075,398.3517 V 352.96587"
       fill-rule="evenodd"
       id="path165" />
    <path
       stroke="#595959"
       stroke-width="2"
       stroke-linejoin="round"
       stroke-linecap="butt"
       d="M 426.52075,398.3517 V 352.96587"
       fill-rule="evenodd"
       id="path166" />
    <path
       fill="#000000"
       fill-opacity="0"
       d="M 434.52075,398.3517 V 352.96587"
       fill-rule="evenodd"
       id="path167" />
    <path
       stroke="#595959"
       stroke-width="2"
       stroke-linejoin="round"
       stroke-linecap="butt"
       d="M 434.52075,398.3517 V 352.96587"
       fill-rule="evenodd"
       id="path168" />
    <path
       fill="#000000"
       fill-opacity="0"
       d="M 521.98267,398.3517 V 385.75328"
       fill-rule="evenodd"
       id="path169" />
    <path
       stroke="#595959"
       stroke-width="2"
       stroke-linejoin="round"
       stroke-linecap="butt"
       d="M 521.98267,398.3517 V 385.75328"
       fill-rule="evenodd"
       id="path170" />
    <path
       fill="#000000"
       fill-opacity="0"
       d="m 276.30185,93.53018 h 272.28348 v 62.39371 H 276.30185 Z"
       fill-rule="evenodd"
       id="path171" />
    <path
       fill="#ffffff"
       d="m 394.76154,134.32704 h 3.39063 l 5.35937,-14.07813 h -3.78125 l -3.07812,9.92188 -0.20313,1 -0.1875,-1 -3.09375,-9.92188 h -3.78125 z m 20.32449,0 h 3.65625 v -0.21875 q -0.26562,-0.53125 -0.40625,-1.26563 -0.14062,-0.75 -0.14062,-1.89062 v -6.03126 q 0,-1.23437 -0.46875,-2.15625 -0.45313,-0.9375 -1.25,-1.54687 -0.8125,-0.60938 -1.92188,-0.92188 -1.09375,-0.3125 -2.35937,-0.3125 -1.42188,0 -2.53125,0.35938 -1.09375,0.35937 -1.84375,0.96875 -0.76563,0.60937 -1.17188,1.42187 -0.39062,0.79688 -0.39062,1.70313 h 3.60937 q 0,-0.375 0.10938,-0.6875 0.125,-0.3125 0.35937,-0.53125 0.25,-0.25 0.65625,-0.39063 0.42188,-0.14062 1,-0.14062 0.65625,0 1.14063,0.17187 0.48437,0.15625 0.8125,0.45313 0.3125,0.29687 0.46875,0.6875 0.15625,0.39062 0.15625,0.89062 v 0.82813 h -2.01563 q -1.5625,0 -2.76562,0.28125 -1.20313,0.28125 -2.03125,0.8125 -0.90625,0.59375 -1.35938,1.5 -0.45312,0.90625 -0.45312,2.07813 0,0.90625 0.35937,1.6875 0.35938,0.76562 1.01563,1.32812 0.65625,0.5625 1.5625,0.875 0.90625,0.3125 1.98437,0.3125 0.65625,0 1.21875,-0.125 0.57813,-0.125 1.0625,-0.34375 0.46875,-0.21875 0.85938,-0.5 0.39062,-0.28125 0.6875,-0.60937 0.0781,0.375 0.15625,0.71875 0.0937,0.32812 0.23437,0.59375 z m -3.45312,-2.53125 q -0.51563,0 -0.90625,-0.125 -0.375,-0.125 -0.625,-0.34375 -0.26563,-0.21875 -0.40625,-0.53125 -0.14063,-0.32813 -0.14063,-0.70313 0,-0.48437 0.1875,-0.89062 0.1875,-0.40625 0.5625,-0.70313 0.375,-0.29687 0.96875,-0.45312 0.60938,-0.15626 1.45313,-0.15626 h 1.84375 v 2.42188 q -0.15625,0.26563 -0.4375,0.53125 -0.26563,0.26563 -0.64063,0.48438 -0.375,0.20312 -0.84375,0.34375 -0.46875,0.125 -1.01562,0.125 z m 20.76196,-11.81251 q -1.42187,0 -2.625,0.6875 -1.1875,0.67188 -2.04687,1.875 l -0.0312,-0.3125 -0.14063,-1.98437 h -3.375 v 14.07813 h 3.625 v -8.45313 q 0.23438,-0.60938 0.60938,-1.04688 0.39062,-0.4375 0.92187,-0.73437 0.4375,-0.25 1,-0.35938 0.57813,-0.125 1.28125,-0.125 0.67188,0 1.42188,0.0781 0.75,0.0781 1.46875,0.25 l 0.53125,-3.59375 q -0.4375,-0.14063 -1.14063,-0.25 -0.6875,-0.10938 -1.5,-0.10938 z"
       fill-rule="nonzero"
       id="path172" />
    <path
       fill="#000000"
       fill-opacity="0"
       d="m 275.98468,166.30971 h 272.28345 v 270.6772 H 275.98468 Z"
       fill-rule="evenodd"
       id="path173" />
    <path
       fill="#ffffff"
       d="m 412.25323,299.09204 -3.32813,-6.79688 h -4.26562 l 5.32812,9.40625 -5.46875,9.54688 h 4.32813 l 3.45312,-6.89063 3.48438,6.89063 h 4.26562 l -5.46875,-9.54688 5.32813,-9.40625 h -4.28125 z"
       fill-rule="nonzero"
       id="path174" />
    <path
       fill="#000000"
       fill-opacity="0"
       d="m 556.3018,166.30971 h 76.47247 v 270.6772 H 556.3018 Z"
       fill-rule="evenodd"
       id="path175" />
    <path
       fill="#ffffff"
       d="m 571.88727,304.07642 v 0.28125 q 0,1.54687 0.4375,2.85937 0.4375,1.29688 1.29687,2.26563 0.85938,0.95312 2.09375,1.5 1.25,0.53125 2.82813,0.53125 1.57812,0 2.8125,-0.53125 1.23437,-0.54688 2.09375,-1.5 0.84375,-0.96875 1.28125,-2.26563 0.4375,-1.3125 0.4375,-2.85937 v -0.28125 q 0,-1.53125 -0.4375,-2.84375 -0.4375,-1.3125 -1.28125,-2.26563 -0.85938,-0.96875 -2.10938,-1.51562 -1.23437,-0.54688 -2.8125,-0.54688 -1.59375,0 -2.82812,0.54688 -1.21875,0.54687 -2.07813,1.51562 -0.85937,0.95313 -1.29687,2.26563 -0.4375,1.3125 -0.4375,2.84375 z m 3.60937,0.28125 v -0.28125 q 0,-0.85938 0.17188,-1.625 0.17187,-0.76563 0.53125,-1.35938 0.375,-0.57812 0.9375,-0.92187 0.57812,-0.34375 1.39062,-0.34375 0.8125,0 1.375,0.34375 0.57813,0.34375 0.95313,0.92187 0.34375,0.59375 0.51562,1.35938 0.17188,0.76562 0.17188,1.625 v 0.28125 q 0,0.875 -0.17188,1.65625 -0.17187,0.76562 -0.51562,1.34375 -0.375,0.57812 -0.95313,0.92187 -0.5625,0.34375 -1.35937,0.34375 -0.8125,0 -1.39063,-0.34375 -0.57812,-0.34375 -0.95312,-0.92187 -0.35938,-0.57813 -0.53125,-1.34375 -0.17188,-0.78125 -0.17188,-1.65625 z m 25.57447,0 v -0.28125 q 0,-1.28125 -0.23438,-2.39063 -0.23437,-1.125 -0.70312,-2.01562 -0.29688,-0.5625 -0.6875,-1.03125 -0.39063,-0.48438 -0.85938,-0.82813 -0.60937,-0.4375 -1.375,-0.67187 -0.75,-0.23438 -1.67187,-0.23438 -0.65625,0 -1.23438,0.14063 -0.5625,0.14062 -1.03125,0.40625 -0.34375,0.1875 -0.64062,0.4375 -0.29688,0.25 -0.5625,0.54687 v -7.1875 h -3.625 v 20 h 3.26562 l 0.17188,-1.5 q 0.21875,0.29688 0.45312,0.53125 0.25,0.23438 0.54688,0.4375 0.53125,0.39063 1.20312,0.59375 0.67188,0.20313 1.48438,0.20313 0.90625,0 1.64062,-0.23438 0.75,-0.21875 1.35938,-0.65625 0.65625,-0.45312 1.14062,-1.14062 0.5,-0.6875 0.79688,-1.54688 0.26562,-0.76562 0.40625,-1.67187 0.15625,-0.90625 0.15625,-1.90625 z m -3.625,-0.28125 v 0.28125 q 0,0.53125 -0.0469,1.04687 -0.0469,0.5 -0.14062,0.9375 -0.14063,0.57813 -0.39063,1.04688 -0.25,0.46875 -0.65625,0.75 -0.28125,0.20312 -0.67187,0.32812 -0.39063,0.10938 -0.875,0.10938 -0.5625,0 -1,-0.125 -0.4375,-0.125 -0.76563,-0.375 -0.26562,-0.20313 -0.46875,-0.46875 -0.20312,-0.26563 -0.35937,-0.59375 v -5.60938 q 0.125,-0.25 0.26562,-0.45312 0.14063,-0.21875 0.3125,-0.39063 0.34375,-0.34375 0.82813,-0.53125 0.5,-0.1875 1.15625,-0.1875 0.48437,0 0.85937,0.10938 0.375,0.10937 0.67188,0.34375 0.46875,0.34375 0.6875,0.76562 0.23437,0.42188 0.375,0.95313 0.10937,0.46875 0.15625,0.98437 0.0625,0.51563 0.0625,1.07813 z m 16.01202,3.3125 q 0,0.3125 -0.17187,0.59375 -0.15625,0.26562 -0.48438,0.48437 -0.32812,0.20313 -0.85937,0.32813 -0.53125,0.125 -1.23438,0.125 -0.57812,0 -1.14062,-0.10938 -0.54688,-0.125 -0.98438,-0.39062 -0.42187,-0.25 -0.70312,-0.65625 -0.26563,-0.40625 -0.3125,-0.98438 h -3.4375 q 0,0.85938 0.42187,1.71875 0.42188,0.84375 1.23438,1.51563 0.82812,0.67187 2.04687,1.09375 1.21875,0.40625 2.79688,0.40625 1.45312,0 2.625,-0.3125 1.17187,-0.3125 2,-0.89063 0.8125,-0.57812 1.26562,-1.35937 0.45313,-0.78125 0.45313,-1.71875 0,-1.01563 -0.45313,-1.75 -0.45312,-0.75 -1.23437,-1.26563 -0.79688,-0.5 -1.89063,-0.82812 -1.09375,-0.32813 -2.375,-0.53125 -0.89062,-0.14063 -1.46875,-0.3125 -0.5625,-0.17188 -0.89062,-0.39063 -0.32813,-0.21875 -0.46875,-0.48437 -0.125,-0.26563 -0.125,-0.57813 0,-0.3125 0.14062,-0.59375 0.15625,-0.28125 0.45313,-0.48437 0.3125,-0.23438 0.79687,-0.35938 0.5,-0.14062 1.15625,-0.14062 0.78125,0 1.32813,0.20312 0.5625,0.1875 0.89062,0.51563 0.23438,0.25 0.34375,0.5625 0.125,0.29687 0.125,0.65625 h 3.60938 q 0,-0.98438 -0.4375,-1.8125 -0.42188,-0.82813 -1.21875,-1.45313 -0.82813,-0.59375 -2,-0.9375 -1.17188,-0.34375 -2.64063,-0.34375 -1.40625,0 -2.53125,0.35938 -1.10937,0.34375 -1.89062,0.9375 -0.78125,0.60937 -1.20313,1.40625 -0.40625,0.78125 -0.40625,1.65625 0,0.90625 0.40625,1.59375 0.40625,0.6875 1.14063,1.20312 0.73437,0.53125 1.75,0.90625 1.01562,0.375 2.25,0.625 0.98437,0.17188 1.625,0.35938 0.64062,0.1875 1.03125,0.39062 0.375,0.21875 0.51562,0.46875 0.15625,0.25 0.15625,0.57813 z"
       fill-rule="nonzero"
       id="path176" />
  </g>
</svg>
